<svg id="Layer_1" data-name="Layer 1" xmlns="http://www.w3.org/2000/svg" viewBox="0 0 290.22 290.22"><path d="M210,152.39H71.34a6.45,6.45,0,0,0-6.45,6.45v83.84h0a6.45,6.45,0,0,0,6.45,6.45H210a48.37,48.37,0,0,1,0,96.74H135.83a6.45,6.45,0,0,0-6.45,6.45v19.35a6.45,6.45,0,0,0,6.45,6.45H210a80.62,80.62,0,0,0,0-161.24H102a4.83,4.83,0,0,1-4.83-4.83V189.47a4.83,4.83,0,0,1,4.83-4.83H210a112.86,112.86,0,0,1,0,225.72H102a4.83,4.83,0,0,1-4.83-4.83V318.46a4.84,4.84,0,0,1,4.83-4.84h117.7a6.44,6.44,0,0,0,6.45-6.45V287.83a6.44,6.44,0,0,0-6.45-6.45H69.73a4.83,4.83,0,0,0-4.84,4.83v150a6.45,6.45,0,0,0,6.45,6.45H210a145.11,145.11,0,0,0,0-290.22Z" transform="translate(-64.89 -152.39)"/></svg>