<?xml version="1.0" encoding="utf-8"?>
<!-- Generator: Adobe Illustrator 26.0.3, SVG Export Plug-In . SVG Version: 6.00 Build 0)  -->
<svg version="1.0" id="katman_1" xmlns="http://www.w3.org/2000/svg" xmlns:xlink="http://www.w3.org/1999/xlink" x="0px" y="0px"
	 viewBox="0 0 600 450" style="enable-background:new 0 0 600 450;" xml:space="preserve">
<style type="text/css">
	.st0{fill:#F8AA2D;}
</style>
<g>
	<path id="Path_2269" d="M246.8,232.4v-9.3h16.1v25.9c0,8.8-4.3,13.1-13.1,13.1h-5.7c-8.8,0-13.1-4.3-13.1-13.1v-45.5
		c0-8.8,4.3-13.1,13.1-13.1h5.6c8.8,0,13,4.3,13,13v11.4h-10.6v-10.8c0-2.8-1.3-4.1-4-4.1h-2.2c-2-0.3-3.8,1-4.1,3
		c-0.1,0.4-0.1,0.8,0,1.2v44.5c-0.3,2,1,3.8,3,4.1c0.4,0.1,0.8,0.1,1.2,0h2.4c2,0.3,3.8-1,4.1-3c0.1-0.4,0.1-0.8,0-1.2v-16.2H246.8z
		"/>
	<path id="Path_2270" d="M280.3,191.2v60.6h11.9v9.8h-22.6v-70.4H280.3z"/>
	<path id="Path_2271" d="M316,262.2h-5.7c-8.8,0-13.1-4.3-13.1-13.1v-45.4c0-8.8,4.3-13.1,13.1-13.1h5.7c8.8,0,13.1,4.3,13.1,13.1
		v45.5C329.1,257.9,324.8,262.2,316,262.2 M314.3,200.1h-2.2c-2-0.3-3.8,1-4.1,3c-0.1,0.4-0.1,0.8,0,1.2v44.4c-0.3,2,1,3.8,3,4.1
		c0.4,0.1,0.8,0.1,1.2,0h2.2c2.7,0,4-1.3,4-4.1v-44.5C318.3,201.4,317,200.1,314.3,200.1"/>
	<path id="Path_2272" d="M368.6,237.7v23.9h-10.8v-23.7c0-3.1-1.4-4.5-4.5-4.5h-5.5v28.3H337v-70.4h18.4c8.8,0,13.1,4.3,13.1,13.1
		v13.3c0,6.2-2.2,9.3-6.1,10.9C366.8,229.6,368.6,232.3,368.6,237.7 M353.7,200.8h-5.9V224h5.5c3,0,4.4-1.4,4.4-4.3v-14.9
		c0.3-1.9-1-3.7-3-4C354.4,200.7,354.1,200.7,353.7,200.8"/>
	<rect id="Rectangle_575" x="376.3" y="191.2" width="10.8" height="70.4"/>
	<path id="Path_2273" d="M414.1,262.2h-5.7c-8.8,0-13.1-4.3-13.1-13.1v-45.4c0-8.8,4.3-13.1,13.1-13.1h5.7c8.8,0,13.1,4.3,13.1,13.1
		v45.5C427.2,257.9,422.8,262.2,414.1,262.2 M412.4,200.1h-2.2c-2-0.3-3.8,1-4.1,3c-0.1,0.4-0.1,0.8,0,1.2v44.4c-0.3,2,1,3.8,3,4.1
		c0.4,0.1,0.8,0.1,1.2,0h2.2c2.7,0,4-1.3,4-4.1v-44.5C416.4,201.4,415.1,200.1,412.4,200.1"/>
	<path id="Path_2274" d="M466.2,249.1c0,8.8-4.3,13.1-13.1,13.1h-5.2c-8.8,0-13.1-4.3-13.1-13.1v-57.9h10.8v57.4c-0.3,2,1,3.8,3,4.1
		c0.4,0.1,0.8,0.1,1.2,0h1.7c2.7,0,4-1.3,4-4.1v-57.4h10.8V249.1z"/>
	<path id="Path_2275" d="M505.3,237.7v11.5c0,8.8-4.3,13.1-13.1,13.1h-4.7c-8.7,0-13-4.3-13-13v-14.9h10.5v14.5c0,2.7,1.3,4,4.1,4
		h1.4c2.8,0,4.1-1.3,4.1-4v-9.7c0.2-2.3-1-4.5-3-5.7l-10.9-7.9c-4.2-2.5-6.6-7.3-6.2-12.2v-9.6c0-8.8,4.3-13.1,13.1-13.1h4.5
		c8.6,0,13,4.3,13,13v12.8h-10.6V204c0.3-1.9-1-3.7-3-4c-0.4-0.1-0.7-0.1-1.1,0h-1.3c-1.9-0.3-3.7,1-4,3c-0.1,0.4-0.1,0.7,0,1.1v7.8
		c-0.2,2.3,1,4.6,3,5.7l10.9,7.9C503.3,228,505.7,232.8,505.3,237.7"/>
	<path id="Path_2276" d="M520,193h-4.1v10.6h-1.7V193h-4.1v-1.6h9.9L520,193z"/>
	<path id="Path_2277" d="M535.2,203.6h-1.7v-10l-3.9,8.6h-1.8l-3.9-8.6v10h-1.7v-12.2h2.5l3.9,8.8l3.9-8.8h2.5L535.2,203.6z"/>
	<path id="Path_2278" class="st0" d="M161.8,192.3c-24.3,0-40.1,21.4-63.9,21.4c-10.5,0-16.7-3.7-19.9-7.5c-0.2-0.3-0.2-0.7,0.1-0.9
		c0.2-0.2,0.5-0.2,0.7-0.1c3.5,1.6,7.2,2.4,11,2.4c25.2,0,41.9-29.9,74.8-29.9c20.6,0,31.5,8.2,34.4,23.1c1.8,10.8,4.3,21.5,7.4,32
		c0.4,1-0.1,2.1-1.1,2.5c0,0-0.1,0-0.1,0l-4.6,1.3c-0.8,0.2-1.3,1-1.4,1.8c1.4,6.9,1.7,13.9,0.9,20.9c-1.9,13.5-16,15.5-24.5,7.9
		c-11.2-10.1-20.2-13.8-31.2-14.3c-1.6-0.1-1.7-0.6-0.7-1.6c5.1-6,9.6-12.5,13.5-19.3c5.3-8.7,12.8-14.3,22.5-14.3
		c4.6-0.2,9.2,0.7,13.4,2.7c0.2,0.1,0.6,0,0.7-0.2c0.1-0.2,0.1-0.4-0.1-0.6c-3.9-4.3-9.5-6.7-15.3-6.7c-13.1,0-21.7,5.9-30.5,18.4
		c-14.9,21.1-21.6,27.6-42.4,27.6c-18.2,0-31.7-8.2-36.9-17.2c-0.6-1.1,0-1.8,1.1-1.1c7.8,4.8,16.8,7.4,26,7.4
		c14.6,0,24.9-4.8,30.3-11.4c0.6-0.7,0.1-1.7-0.8-1.4c-5.5,1.6-11.2,2.5-16.9,2.5c-20,0-37.4-7.3-42.4-18.3c-0.7-1.5-0.3-2,1.1-1.3
		c8.2,3.7,17.1,5.5,26.1,5.3c37.8,0,39-31.4,86.1-25.9c0.5,0.1,1.1-0.5,0.6-0.8C174.1,193.5,168,192,161.8,192.3"/>
</g>
</svg>
